<svg xmlns="http://www.w3.org/2000/svg" xmlns:xlink="http://www.w3.org/1999/xlink" width="101" height="37" viewBox="0 0 101 37">
    <defs>
        <path id="a" d="M.267.08h24.546v23.03H.267z"/>
        <path id="c" d="M.055.08h22.693v23.031H.055z"/>
    </defs>
    <g fill="none" fill-rule="evenodd">
        <path fill="#FEFEFE" d="M16.71 13.717l-4.578 4.89-4.544-4.89H1.95l7.364 7.938L1 30.608h5.685l5.48-5.891 5.479 5.89h5.67l-8.33-8.921 7.395-7.97zM46.165 30.608H31.31c-.38 0-.79-.045-1.228-.133a6.398 6.398 0 0 1-1.298-.414 6.003 6.003 0 0 1-1.228-.727 4.945 4.945 0 0 1-1.037-1.078 5.3 5.3 0 0 1-.72-1.469c-.18-.557-.27-1.185-.27-1.882v-11c0-.376.045-.78.135-1.211.09-.433.23-.86.42-1.282.19-.421.437-.825.744-1.21a5.117 5.117 0 0 1 1.1-1.024c.428-.297.921-.534 1.48-.71.56-.178 1.194-.267 1.902-.267h14.854v4.063H31.31c-.54 0-.95.14-1.236.422-.285.28-.427.698-.427 1.25v10.969c0 .52.145.924.435 1.21.29.287.7.43 1.228.43h14.854v4.063z"/>
        <g transform="translate(48.748 7.809)">
            <mask id="b" fill="#fff">
                <use xlink:href="#a"/>
            </mask>
            <path fill="#FEFEFE" d="M20.696 9.455c0-.802-.13-1.529-.388-2.18a4.796 4.796 0 0 0-1.093-1.672 4.892 4.892 0 0 0-1.694-1.078 5.992 5.992 0 0 0-2.177-.383H9.769c-.803 0-1.533.128-2.193.383a4.973 4.973 0 0 0-1.702 1.078 4.752 4.752 0 0 0-1.101 1.672c-.259.651-.388 1.378-.388 2.18v4.28c0 .803.13 1.53.388 2.181.258.65.626 1.208 1.1 1.671a4.96 4.96 0 0 0 1.703 1.079c.66.255 1.39.383 2.193.383h5.542c.803 0 1.535-.128 2.194-.383a4.977 4.977 0 0 0 1.703-1.079 4.755 4.755 0 0 0 1.1-1.67c.258-.652.388-1.379.388-2.181V9.455zm4.117 4.28c0 1.366-.237 2.621-.712 3.767a8.91 8.91 0 0 1-1.98 2.969 8.972 8.972 0 0 1-3 1.945c-1.156.464-2.416.695-3.777.695H9.769c-1.362 0-2.623-.231-3.785-.695a8.962 8.962 0 0 1-3.009-1.945 9.026 9.026 0 0 1-1.987-2.969c-.48-1.146-.72-2.4-.72-3.766V9.455c0-1.354.24-2.607.72-3.758a8.913 8.913 0 0 1 1.987-2.968A9.116 9.116 0 0 1 5.985.783C7.144.314 8.406.08 9.768.08h5.575c1.361 0 2.62.234 3.776.703a9.127 9.127 0 0 1 3.001 1.946 8.8 8.8 0 0 1 1.98 2.968c.475 1.15.712 2.404.712 3.758v4.28z" mask="url(#b)"/>
        </g>
        <g transform="translate(77.577 7.809)">
            <mask id="d" fill="#fff">
                <use xlink:href="#c"/>
            </mask>
            <path fill="#FEFEFE" d="M22.748 21.064c0 .292-.056.563-.167.813a2.013 2.013 0 0 1-1.1 1.078 2.106 2.106 0 0 1-.808.156 2.25 2.25 0 0 1-.768-.14 1.813 1.813 0 0 1-.689-.453L4.172 7.018v15.78H.055V2.126c0-.416.118-.793.356-1.132.238-.339.541-.591.91-.758A2.12 2.12 0 0 1 2.526.119c.412.078.765.268 1.06.57l15.046 15.485V.392h4.117v20.672z" mask="url(#d)"/>
        </g>
    </g>
</svg>
